<?xml version="1.0" encoding="UTF-8" standalone="no"?>
<!DOCTYPE svg PUBLIC "-//W3C//DTD SVG 1.1//EN"
 "http://www.w3.org/Graphics/SVG/1.1/DTD/svg11.dtd">
<!-- Generated by graphviz version 2.40.1 (20161225.0304)
 -->
<!-- Title: dependencies Pages: 1 -->
<svg width="899pt" height="284pt"
 viewBox="0.00 0.00 899.00 284.00" xmlns="http://www.w3.org/2000/svg" xmlns:xlink="http://www.w3.org/1999/xlink">
<g id="graph0" class="graph" transform="scale(1 1) rotate(0) translate(4 280)">
<title>dependencies</title>
<polygon fill="#ffffff" stroke="transparent" points="-4,4 -4,-280 895,-280 895,4 -4,4"/>
<text text-anchor="start" x="424.5091" y="-42.4" font-family="sans-serif" font-weight="bold" font-size="14.00" fill="#000000">Legend</text>
<polygon fill="#ffffb3" stroke="transparent" points="211.5,-10 211.5,-30 231.5,-30 231.5,-10 211.5,-10"/>
<text text-anchor="start" x="235.129" y="-15.4" font-family="sans-serif" font-size="14.00" fill="#000000"> &#160;Declarations</text>
<polygon fill="#8dd3c7" stroke="transparent" points="324.5,-10 324.5,-30 344.5,-30 344.5,-10 324.5,-10"/>
<text text-anchor="start" x="348.2251" y="-15.4" font-family="sans-serif" font-size="14.00" fill="#000000"> &#160;Module</text>
<polygon fill="#80b1d3" stroke="transparent" points="410.5,-10 410.5,-30 430.5,-30 430.5,-10 410.5,-10"/>
<text text-anchor="start" x="434.2812" y="-15.4" font-family="sans-serif" font-size="14.00" fill="#000000"> &#160;Bootstrap</text>
<polygon fill="#fdb462" stroke="transparent" points="507.5,-10 507.5,-30 527.5,-30 527.5,-10 507.5,-10"/>
<text text-anchor="start" x="531.1732" y="-15.4" font-family="sans-serif" font-size="14.00" fill="#000000"> &#160;Providers</text>
<polygon fill="#fb8072" stroke="transparent" points="603.5,-10 603.5,-30 623.5,-30 623.5,-10 603.5,-10"/>
<text text-anchor="start" x="627.2258" y="-15.4" font-family="sans-serif" font-size="14.00" fill="#000000"> &#160;Exports</text>
<g id="clust1" class="cluster">
<title>cluster_AppModule</title>
<polygon fill="none" stroke="#000000" stroke-dasharray="1,5" points="8,-70 8,-268 883,-268 883,-70 8,-70"/>
</g>
<g id="clust2" class="cluster">
<title>cluster_AppModule_declarations</title>
<polygon fill="none" stroke="#000000" points="264,-78 264,-130 875,-130 875,-78 264,-78"/>
</g>
<g id="clust9" class="cluster">
<title>cluster_AppModule_bootstrap</title>
<polygon fill="none" stroke="#000000" points="486,-208 486,-260 610,-260 610,-208 486,-208"/>
</g>
<g id="clust10" class="cluster">
<title>cluster_AppModule_providers</title>
<polygon fill="none" stroke="#000000" points="16,-78 16,-130 256,-130 256,-78 16,-78"/>
</g>
<!-- AppComponent -->
<g id="node1" class="node">
<title>AppComponent</title>
<polygon fill="#ffffb3" stroke="#000000" points="866.9399,-122 761.0601,-122 761.0601,-86 866.9399,-86 866.9399,-122"/>
<text text-anchor="middle" x="814" y="-99.8" font-family="Times,serif" font-size="14.00" fill="#000000">AppComponent</text>
</g>
<!-- AppModule -->
<g id="node5" class="node">
<title>AppModule</title>
<polygon fill="#8dd3c7" stroke="#000000" points="589.6571,-187 586.6571,-191 565.6571,-191 562.6571,-187 506.3429,-187 506.3429,-151 589.6571,-151 589.6571,-187"/>
<text text-anchor="middle" x="548" y="-164.8" font-family="Times,serif" font-size="14.00" fill="#000000">AppModule</text>
</g>
<!-- AppComponent&#45;&gt;AppModule -->
<g id="edge1" class="edge">
<title>AppComponent&#45;&gt;AppModule</title>
<path fill="none" stroke="#000000" d="M814,-122.2843C814,-143.3211 814,-175 814,-175 814,-175 599.8551,-175 599.8551,-175"/>
<polygon fill="#000000" stroke="#000000" points="599.8552,-171.5001 589.8551,-175 599.8551,-178.5001 599.8552,-171.5001"/>
</g>
<!-- SwipeDirective -->
<g id="node2" class="node">
<title>SwipeDirective</title>
<polygon fill="#ffffb3" stroke="#000000" points="743.5772,-122 640.4228,-122 640.4228,-86 743.5772,-86 743.5772,-122"/>
<text text-anchor="middle" x="692" y="-99.8" font-family="Times,serif" font-size="14.00" fill="#000000">SwipeDirective</text>
</g>
<!-- SwipeDirective&#45;&gt;AppModule -->
<g id="edge2" class="edge">
<title>SwipeDirective&#45;&gt;AppModule</title>
<path fill="none" stroke="#000000" d="M692,-122.0225C692,-139.3734 692,-163 692,-163 692,-163 600.0379,-163 600.0379,-163"/>
<polygon fill="#000000" stroke="#000000" points="600.0379,-159.5001 590.0379,-163 600.0378,-166.5001 600.0379,-159.5001"/>
</g>
<!-- KeyupaArrowDirective -->
<g id="node3" class="node">
<title>KeyupaArrowDirective</title>
<polygon fill="#ffffb3" stroke="#000000" points="622.1531,-122 473.8469,-122 473.8469,-86 622.1531,-86 622.1531,-122"/>
<text text-anchor="middle" x="548" y="-99.8" font-family="Times,serif" font-size="14.00" fill="#000000">KeyupaArrowDirective</text>
</g>
<!-- KeyupaArrowDirective&#45;&gt;AppModule -->
<g id="edge3" class="edge">
<title>KeyupaArrowDirective&#45;&gt;AppModule</title>
<path fill="none" stroke="#000000" d="M548,-122.1061C548,-122.1061 548,-140.991 548,-140.991"/>
<polygon fill="#000000" stroke="#000000" points="544.5001,-140.9909 548,-150.991 551.5001,-140.991 544.5001,-140.9909"/>
</g>
<!-- PlaceholderMessegeDirective -->
<g id="node4" class="node">
<title>PlaceholderMessegeDirective</title>
<polygon fill="#ffffb3" stroke="#000000" points="455.6433,-122 272.3567,-122 272.3567,-86 455.6433,-86 455.6433,-122"/>
<text text-anchor="middle" x="364" y="-99.8" font-family="Times,serif" font-size="14.00" fill="#000000">PlaceholderMessegeDirective</text>
</g>
<!-- PlaceholderMessegeDirective&#45;&gt;AppModule -->
<g id="edge4" class="edge">
<title>PlaceholderMessegeDirective&#45;&gt;AppModule</title>
<path fill="none" stroke="#000000" d="M364,-122.0225C364,-139.3734 364,-163 364,-163 364,-163 496.2476,-163 496.2476,-163"/>
<polygon fill="#000000" stroke="#000000" points="496.2476,-166.5001 506.2476,-163 496.2475,-159.5001 496.2476,-166.5001"/>
</g>
<!-- AppComponent  -->
<g id="node6" class="node">
<title>AppComponent </title>
<polygon fill="#80b1d3" stroke="#000000" points="602.439,-252 493.561,-252 493.561,-216 602.439,-216 602.439,-252"/>
<text text-anchor="middle" x="548" y="-229.8" font-family="Times,serif" font-size="14.00" fill="#000000">AppComponent </text>
</g>
<!-- AppModule&#45;&gt;AppComponent  -->
<g id="edge5" class="edge">
<title>AppModule&#45;&gt;AppComponent </title>
<path fill="none" stroke="#000000" stroke-dasharray="1,5" d="M548,-187.1061C548,-187.1061 548,-205.991 548,-205.991"/>
<polygon fill="#000000" stroke="#000000" points="544.5001,-205.9909 548,-215.991 551.5001,-205.991 544.5001,-205.9909"/>
</g>
<!-- CommomMessegeService -->
<g id="node7" class="node">
<title>CommomMessegeService</title>
<ellipse fill="#fdb462" stroke="#000000" cx="136" cy="-104" rx="112.3187" ry="18"/>
<text text-anchor="middle" x="136" y="-99.8" font-family="Times,serif" font-size="14.00" fill="#000000">CommomMessegeService</text>
</g>
<!-- CommomMessegeService&#45;&gt;AppModule -->
<g id="edge6" class="edge">
<title>CommomMessegeService&#45;&gt;AppModule</title>
<path fill="none" stroke="#000000" d="M136,-122.2843C136,-143.3211 136,-175 136,-175 136,-175 496.2279,-175 496.2279,-175"/>
<polygon fill="#000000" stroke="#000000" points="496.228,-178.5001 506.2279,-175 496.2279,-171.5001 496.228,-178.5001"/>
</g>
</g>
</svg>
